<svg xmlns="http://www.w3.org/2000/svg" width="153" height="32" viewBox="0 0 153 32" fill="none"><rect x="0.5" y="0.5" width="152" height="31" rx="15.5" fill="#12CE43" stroke="white"></rect><path d="M0.683437 15.8081C0.682687 18.4967 1.39069 21.1219 2.73694 23.4359L0.554688 31.3418L8.70869 29.2204C10.964 30.4387 13.4909 31.077 16.0587 31.0772H16.0654C24.5423 31.0772 31.4427 24.2327 31.4463 15.8201C31.4479 11.7436 29.8494 7.91027 26.9452 5.0263C24.0414 2.14258 20.1796 0.553618 16.0648 0.551758C7.58694 0.551758 0.687063 7.39579 0.683563 15.8081" fill="#12CE43"></path><path d="M0.13375 15.8035C0.132875 18.5889 0.86625 21.308 2.2605 23.7048L0 31.8942L8.44637 29.6967C10.7736 30.9558 13.3939 31.6196 16.0601 31.6206H16.067C24.848 31.6206 31.9963 24.53 32 15.8162C32.0015 11.5932 30.3455 7.62208 27.3375 4.63479C24.3291 1.64788 20.3291 0.00173643 16.067 0C7.2845 0 0.13725 7.08961 0.13375 15.8035ZM5.16375 23.292L4.84837 22.7953C3.52262 20.7036 2.82288 18.2865 2.82387 15.8045C2.82675 8.56174 8.76725 2.66915 16.072 2.66915C19.6095 2.67064 22.934 4.03895 25.4345 6.52155C27.9349 9.0044 29.3108 12.3049 29.3099 15.8152C29.3066 23.058 23.366 28.9513 16.067 28.9513H16.0618C13.6851 28.9501 11.3542 28.3168 9.3215 27.12L8.83775 26.8354L3.8255 28.1393L5.16375 23.292Z" fill="url(#paint0_linear_3438_206)"></path><path d="M12.0845 9.19662C11.7862 8.53888 11.4723 8.52561 11.1887 8.51407C10.9565 8.50415 10.691 8.5049 10.4257 8.5049C10.1602 8.5049 9.72883 8.604 9.3642 8.99904C8.9992 9.39445 7.9707 10.35 7.9707 12.2934C7.9707 14.237 9.39733 16.1152 9.5962 16.379C9.79533 16.6423 12.3503 20.7582 16.3968 22.3415C19.7598 23.6574 20.4442 23.3957 21.1741 23.3297C21.9041 23.264 23.5296 22.3744 23.8612 21.452C24.1931 20.5297 24.1931 19.7391 24.0936 19.5739C23.9941 19.4093 23.7286 19.3105 23.3305 19.113C22.9322 18.9154 20.975 17.9598 20.6101 17.8279C20.2451 17.6962 19.9797 17.6305 19.7142 18.026C19.4487 18.4209 18.6863 19.3105 18.454 19.5739C18.2218 19.838 17.9895 19.8708 17.5915 19.6733C17.1931 19.4751 15.911 19.0584 14.3898 17.7128C13.2063 16.6658 12.4073 15.3727 12.1751 14.9772C11.9428 14.5823 12.1502 14.3682 12.3498 14.1714C12.5287 13.9944 12.7481 13.7101 12.9473 13.4795C13.1458 13.2488 13.2121 13.0842 13.3448 12.8208C13.4777 12.5571 13.4112 12.3264 13.3118 12.1288C13.2121 11.9313 12.4385 9.97764 12.0845 9.19662Z" fill="white"></path><path d="M39.996 20V11.6H41.604L45.18 17.528H44.328L47.844 11.6H49.44L49.464 20H47.64L47.628 14.396H47.964L45.156 19.112H44.28L41.412 14.396H41.82V20H39.996ZM55.2849 20V18.74L55.1649 18.464V16.208C55.1649 15.808 55.0409 15.496 54.7929 15.272C54.5529 15.048 54.1809 14.936 53.6769 14.936C53.3329 14.936 52.9929 14.992 52.6569 15.104C52.3289 15.208 52.0489 15.352 51.8169 15.536L51.1449 14.228C51.4969 13.98 51.9209 13.788 52.4169 13.652C52.9129 13.516 53.4169 13.448 53.9289 13.448C54.9129 13.448 55.6769 13.68 56.2209 14.144C56.7649 14.608 57.0369 15.332 57.0369 16.316V20H55.2849ZM53.3169 20.096C52.8129 20.096 52.3809 20.012 52.0209 19.844C51.6609 19.668 51.3849 19.432 51.1929 19.136C51.0009 18.84 50.9049 18.508 50.9049 18.14C50.9049 17.756 50.9969 17.42 51.1809 17.132C51.3729 16.844 51.6729 16.62 52.0809 16.46C52.4889 16.292 53.0209 16.208 53.6769 16.208H55.3929V17.3H53.8809C53.4409 17.3 53.1369 17.372 52.9689 17.516C52.8089 17.66 52.7289 17.84 52.7289 18.056C52.7289 18.296 52.8209 18.488 53.0049 18.632C53.1969 18.768 53.4569 18.836 53.7849 18.836C54.0969 18.836 54.3769 18.764 54.6249 18.62C54.8729 18.468 55.0529 18.248 55.1649 17.96L55.4529 18.824C55.3169 19.24 55.0689 19.556 54.7089 19.772C54.3489 19.988 53.8849 20.096 53.3169 20.096ZM58.7312 20V13.544H60.5192V15.368L60.2672 14.84C60.4592 14.384 60.7672 14.04 61.1912 13.808C61.6152 13.568 62.1312 13.448 62.7392 13.448V15.176C62.6592 15.168 62.5872 15.164 62.5232 15.164C62.4592 15.156 62.3912 15.152 62.3192 15.152C61.8072 15.152 61.3912 15.3 61.0712 15.596C60.7592 15.884 60.6032 16.336 60.6032 16.952V20H58.7312ZM66.9254 20.096C66.2294 20.096 65.6094 19.956 65.0654 19.676C64.5214 19.388 64.0934 18.992 63.7814 18.488C63.4774 17.984 63.3254 17.412 63.3254 16.772C63.3254 16.124 63.4774 15.552 63.7814 15.056C64.0934 14.552 64.5214 14.16 65.0654 13.88C65.6094 13.592 66.2294 13.448 66.9254 13.448C67.6054 13.448 68.1974 13.592 68.7014 13.88C69.2054 14.16 69.5774 14.564 69.8174 15.092L68.3654 15.872C68.1974 15.568 67.9854 15.344 67.7294 15.2C67.4814 15.056 67.2094 14.984 66.9134 14.984C66.5934 14.984 66.3054 15.056 66.0494 15.2C65.7934 15.344 65.5894 15.548 65.4374 15.812C65.2934 16.076 65.2214 16.396 65.2214 16.772C65.2214 17.148 65.2934 17.468 65.4374 17.732C65.5894 17.996 65.7934 18.2 66.0494 18.344C66.3054 18.488 66.5934 18.56 66.9134 18.56C67.2094 18.56 67.4814 18.492 67.7294 18.356C67.9854 18.212 68.1974 17.984 68.3654 17.672L69.8174 18.464C69.5774 18.984 69.2054 19.388 68.7014 19.676C68.1974 19.956 67.6054 20.096 66.9254 20.096ZM74.8553 20V18.74L74.7353 18.464V16.208C74.7353 15.808 74.6113 15.496 74.3633 15.272C74.1233 15.048 73.7513 14.936 73.2473 14.936C72.9033 14.936 72.5633 14.992 72.2273 15.104C71.8993 15.208 71.6193 15.352 71.3873 15.536L70.7153 14.228C71.0673 13.98 71.4913 13.788 71.9873 13.652C72.4833 13.516 72.9873 13.448 73.4993 13.448C74.4833 13.448 75.2473 13.68 75.7913 14.144C76.3353 14.608 76.6073 15.332 76.6073 16.316V20H74.8553ZM72.8873 20.096C72.3833 20.096 71.9513 20.012 71.5913 19.844C71.2313 19.668 70.9553 19.432 70.7633 19.136C70.5713 18.84 70.4753 18.508 70.4753 18.14C70.4753 17.756 70.5673 17.42 70.7513 17.132C70.9433 16.844 71.2433 16.62 71.6513 16.46C72.0593 16.292 72.5913 16.208 73.2473 16.208H74.9633V17.3H73.4513C73.0113 17.3 72.7073 17.372 72.5393 17.516C72.3793 17.66 72.2993 17.84 72.2993 18.056C72.2993 18.296 72.3913 18.488 72.5753 18.632C72.7673 18.768 73.0273 18.836 73.3553 18.836C73.6673 18.836 73.9473 18.764 74.1953 18.62C74.4433 18.468 74.6233 18.248 74.7353 17.96L75.0233 18.824C74.8873 19.24 74.6393 19.556 74.2793 19.772C73.9193 19.988 73.4553 20.096 72.8873 20.096ZM78.3015 20V13.544H80.0895V15.368L79.8375 14.84C80.0295 14.384 80.3375 14.04 80.7615 13.808C81.1855 13.568 81.7015 13.448 82.3095 13.448V15.176C82.2295 15.168 82.1575 15.164 82.0935 15.164C82.0295 15.156 81.9615 15.152 81.8895 15.152C81.3775 15.152 80.9615 15.3 80.6415 15.596C80.3295 15.884 80.1735 16.336 80.1735 16.952V20H78.3015ZM89.9879 20.096C89.2919 20.096 88.6719 19.956 88.1279 19.676C87.5839 19.388 87.1559 18.992 86.8439 18.488C86.5399 17.984 86.3879 17.412 86.3879 16.772C86.3879 16.124 86.5399 15.552 86.8439 15.056C87.1559 14.552 87.5839 14.16 88.1279 13.88C88.6719 13.592 89.2919 13.448 89.9879 13.448C90.6679 13.448 91.2599 13.592 91.7639 13.88C92.2679 14.16 92.6399 14.564 92.8799 15.092L91.4279 15.872C91.2599 15.568 91.0479 15.344 90.7919 15.2C90.5439 15.056 90.2719 14.984 89.9759 14.984C89.6559 14.984 89.3679 15.056 89.1119 15.2C88.8559 15.344 88.6519 15.548 88.4999 15.812C88.3559 16.076 88.2839 16.396 88.2839 16.772C88.2839 17.148 88.3559 17.468 88.4999 17.732C88.6519 17.996 88.8559 18.2 89.1119 18.344C89.3679 18.488 89.6559 18.56 89.9759 18.56C90.2719 18.56 90.5439 18.492 90.7919 18.356C91.0479 18.212 91.2599 17.984 91.4279 17.672L92.8799 18.464C92.6399 18.984 92.2679 19.388 91.7639 19.676C91.2599 19.956 90.6679 20.096 89.9879 20.096ZM96.9477 20.096C96.2597 20.096 95.6477 19.952 95.1117 19.664C94.5837 19.376 94.1637 18.984 93.8517 18.488C93.5477 17.984 93.3957 17.412 93.3957 16.772C93.3957 16.124 93.5477 15.552 93.8517 15.056C94.1637 14.552 94.5837 14.16 95.1117 13.88C95.6477 13.592 96.2597 13.448 96.9477 13.448C97.6277 13.448 98.2357 13.592 98.7717 13.88C99.3077 14.16 99.7277 14.548 100.032 15.044C100.336 15.54 100.488 16.116 100.488 16.772C100.488 17.412 100.336 17.984 100.032 18.488C99.7277 18.984 99.3077 19.376 98.7717 19.664C98.2357 19.952 97.6277 20.096 96.9477 20.096ZM96.9477 18.56C97.2597 18.56 97.5397 18.488 97.7877 18.344C98.0357 18.2 98.2317 17.996 98.3757 17.732C98.5197 17.46 98.5917 17.14 98.5917 16.772C98.5917 16.396 98.5197 16.076 98.3757 15.812C98.2317 15.548 98.0357 15.344 97.7877 15.2C97.5397 15.056 97.2597 14.984 96.9477 14.984C96.6357 14.984 96.3557 15.056 96.1077 15.2C95.8597 15.344 95.6597 15.548 95.5077 15.812C95.3637 16.076 95.2917 16.396 95.2917 16.772C95.2917 17.14 95.3637 17.46 95.5077 17.732C95.6597 17.996 95.8597 18.2 96.1077 18.344C96.3557 18.488 96.6357 18.56 96.9477 18.56ZM105.663 13.448C106.175 13.448 106.631 13.552 107.031 13.76C107.439 13.96 107.759 14.272 107.991 14.696C108.223 15.112 108.339 15.648 108.339 16.304V20H106.467V16.592C106.467 16.072 106.351 15.688 106.119 15.44C105.895 15.192 105.575 15.068 105.159 15.068C104.863 15.068 104.595 15.132 104.355 15.26C104.123 15.38 103.939 15.568 103.803 15.824C103.675 16.08 103.611 16.408 103.611 16.808V20H101.739V13.544H103.527V15.332L103.191 14.792C103.423 14.36 103.755 14.028 104.187 13.796C104.619 13.564 105.111 13.448 105.663 13.448ZM112.208 20.096C111.656 20.096 111.124 20.032 110.612 19.904C110.108 19.768 109.708 19.6 109.412 19.4L110.036 18.056C110.332 18.24 110.68 18.392 111.08 18.512C111.488 18.624 111.888 18.68 112.28 18.68C112.712 18.68 113.016 18.628 113.192 18.524C113.376 18.42 113.468 18.276 113.468 18.092C113.468 17.94 113.396 17.828 113.252 17.756C113.116 17.676 112.932 17.616 112.7 17.576C112.468 17.536 112.212 17.496 111.932 17.456C111.66 17.416 111.384 17.364 111.104 17.3C110.824 17.228 110.568 17.124 110.336 16.988C110.104 16.852 109.916 16.668 109.772 16.436C109.636 16.204 109.568 15.904 109.568 15.536C109.568 15.128 109.684 14.768 109.916 14.456C110.156 14.144 110.5 13.9 110.948 13.724C111.396 13.54 111.932 13.448 112.556 13.448C112.996 13.448 113.444 13.496 113.9 13.592C114.356 13.688 114.736 13.828 115.04 14.012L114.416 15.344C114.104 15.16 113.788 15.036 113.468 14.972C113.156 14.9 112.852 14.864 112.556 14.864C112.14 14.864 111.836 14.92 111.644 15.032C111.452 15.144 111.356 15.288 111.356 15.464C111.356 15.624 111.424 15.744 111.56 15.824C111.704 15.904 111.892 15.968 112.124 16.016C112.356 16.064 112.608 16.108 112.88 16.148C113.16 16.18 113.44 16.232 113.72 16.304C114 16.376 114.252 16.48 114.476 16.616C114.708 16.744 114.896 16.924 115.04 17.156C115.184 17.38 115.256 17.676 115.256 18.044C115.256 18.444 115.136 18.8 114.896 19.112C114.656 19.416 114.308 19.656 113.852 19.832C113.404 20.008 112.856 20.096 112.208 20.096ZM119.135 20.096C118.599 20.096 118.119 19.992 117.695 19.784C117.279 19.576 116.955 19.26 116.723 18.836C116.491 18.404 116.375 17.856 116.375 17.192V13.544H118.247V16.916C118.247 17.452 118.359 17.848 118.583 18.104C118.815 18.352 119.139 18.476 119.555 18.476C119.843 18.476 120.099 18.416 120.323 18.296C120.547 18.168 120.723 17.976 120.851 17.72C120.979 17.456 121.043 17.128 121.043 16.736V13.544H122.915V20H121.139V18.224L121.463 18.74C121.247 19.188 120.927 19.528 120.503 19.76C120.087 19.984 119.631 20.096 119.135 20.096ZM124.649 20V11.096H126.521V20H124.649ZM131.379 20.096C130.619 20.096 130.027 19.904 129.603 19.52C129.179 19.128 128.967 18.548 128.967 17.78V12.116H130.839V17.756C130.839 18.028 130.911 18.24 131.055 18.392C131.199 18.536 131.395 18.608 131.643 18.608C131.939 18.608 132.191 18.528 132.399 18.368L132.903 19.688C132.711 19.824 132.479 19.928 132.207 20C131.943 20.064 131.667 20.096 131.379 20.096ZM127.971 15.128V13.688H132.447V15.128H127.971ZM137.914 20V18.74L137.794 18.464V16.208C137.794 15.808 137.67 15.496 137.422 15.272C137.182 15.048 136.81 14.936 136.306 14.936C135.962 14.936 135.622 14.992 135.286 15.104C134.958 15.208 134.678 15.352 134.446 15.536L133.774 14.228C134.126 13.98 134.55 13.788 135.046 13.652C135.542 13.516 136.046 13.448 136.558 13.448C137.542 13.448 138.306 13.68 138.85 14.144C139.394 14.608 139.666 15.332 139.666 16.316V20H137.914ZM135.946 20.096C135.442 20.096 135.01 20.012 134.65 19.844C134.29 19.668 134.014 19.432 133.822 19.136C133.63 18.84 133.534 18.508 133.534 18.14C133.534 17.756 133.626 17.42 133.81 17.132C134.002 16.844 134.302 16.62 134.71 16.46C135.118 16.292 135.65 16.208 136.306 16.208H138.022V17.3H136.51C136.07 17.3 135.766 17.372 135.598 17.516C135.438 17.66 135.358 17.84 135.358 18.056C135.358 18.296 135.45 18.488 135.634 18.632C135.826 18.768 136.086 18.836 136.414 18.836C136.726 18.836 137.006 18.764 137.254 18.62C137.502 18.468 137.682 18.248 137.794 17.96L138.082 18.824C137.946 19.24 137.698 19.556 137.338 19.772C136.978 19.988 136.514 20.096 135.946 20.096Z" fill="white"></path><defs><linearGradient id="paint0_linear_3438_206" x1="1600" y1="3189.42" x2="1600" y2="0" gradientUnits="userSpaceOnUse"><stop stop-color="#F9F9F9"></stop><stop offset="1" stop-color="white"></stop></linearGradient></defs></svg>